<svg width="80" height="72" viewBox="0 0 80 72" fill="none" xmlns="http://www.w3.org/2000/svg">
<path fill-rule="evenodd" clip-rule="evenodd" d="M38.9912 12.7721C38.9912 12.7721 46.4565 2.92323 55.5409 15.7852C53.2923 17.4042 48.5253 20.6422 48.5253 20.6422C48.5253 20.6422 49.4697 11.1081 38.9912 12.7721Z" fill="#0560AB"/>
<path fill-rule="evenodd" clip-rule="evenodd" d="M41.6434 17.6739C41.6434 17.6739 34.1781 27.5228 25.0938 14.6608C27.3423 13.0418 32.1094 9.80383 32.1094 9.80383C32.1094 9.80383 31.165 19.3379 41.6434 17.6739Z" fill="#0560AB"/>
<path fill-rule="evenodd" clip-rule="evenodd" d="M42.7685 13.8964C42.7685 13.8964 52.6174 21.3617 39.7554 30.446C38.1364 28.1974 34.8984 23.4304 34.8984 23.4304C34.8984 23.4304 44.4325 24.3748 42.7685 13.8964Z" fill="#0560AB"/>
<path fill-rule="evenodd" clip-rule="evenodd" d="M37.8663 16.5497C37.8663 16.5497 28.0175 9.03935 40.8794 0C42.4984 2.24859 45.7364 7.01562 45.7364 7.01562C45.7364 7.01562 36.2024 6.07121 37.8663 16.5497Z" fill="#00A874"/>
<path d="M1.61918 70.2461L0.27002 67.6827H0.809683L1.84404 69.7065L2.74347 67.6827H3.23816L1.97895 70.3811C1.79906 70.7858 1.61918 71.0107 1.48426 71.1006C1.34935 71.1905 1.12449 71.2355 0.899626 71.2355H0.809683V70.8308H0.98957C1.16946 70.8308 1.2594 70.7858 1.34934 70.7408C1.43929 70.6959 1.48426 70.5609 1.5742 70.3811L1.61918 70.2461Z" fill="#0560AB"/>
<path d="M4.13794 71.2355V67.6827H6.83625V71.2355H6.38653V68.0875H4.6776V71.2355H4.13794Z" fill="#0560AB"/>
<path d="M8.77032 71.2355H8.27563V67.6827H9.66976C10.1195 67.6827 10.4343 67.7727 10.6142 67.9975C10.7941 68.2224 10.929 68.4473 10.929 68.7171C10.929 69.0319 10.839 69.2568 10.6142 69.4816C10.3893 69.6615 10.1195 69.7964 9.71474 69.7964H8.77032V71.2355ZM8.77032 69.4366H9.66976C9.89462 69.4366 10.0745 69.3917 10.2094 69.2568C10.3443 69.1218 10.4343 68.9869 10.4343 68.7621C10.4343 68.5822 10.3893 68.4473 10.2544 68.3123C10.1195 68.1774 9.9396 68.0875 9.71474 68.0875H8.77032V69.4366Z" fill="#0560AB"/>
<path d="M14.3465 71.2355H13.8518L13.447 70.2012H12.0079L11.6482 71.2355H11.2434L12.5026 67.6827H13.0423L14.3465 71.2355ZM13.3571 69.8864L12.7725 68.1774L12.1878 69.8864H13.3571Z" fill="#0560AB"/>
<path d="M15.2903 71.2355V67.6827H16.8193C17.2241 67.6827 17.4939 67.7727 17.6738 67.9526C17.8537 68.1325 17.9436 68.3123 17.9436 68.5372C17.9436 68.942 17.7188 69.2118 17.269 69.3467C17.5389 69.3917 17.7637 69.5266 17.8987 69.7065C18.0336 69.8864 18.0785 70.0662 18.0785 70.2461C18.0785 70.516 17.9886 70.7408 17.7637 70.9657C17.5389 71.1905 17.2241 71.2355 16.8193 71.2355H15.2903ZM15.785 69.2118H16.6394C16.9992 69.2118 17.2241 69.1668 17.359 69.0319C17.4939 68.897 17.5389 68.7621 17.5389 68.5822C17.5389 68.4023 17.4939 68.2674 17.359 68.1774C17.2241 68.0875 17.0442 68.0425 16.7744 68.0425H15.785V69.2118ZM15.785 70.8757H16.8193C17.0892 70.8757 17.269 70.8308 17.404 70.6959C17.5389 70.6059 17.6288 70.426 17.6288 70.2461C17.6288 70.1112 17.5838 70.0213 17.5389 69.8864C17.4939 69.7515 17.404 69.7065 17.269 69.6165C17.1341 69.5716 16.9992 69.5266 16.7744 69.5266H15.785V70.8757Z" fill="#0560AB"/>
<path d="M19.2488 71.2355H18.7991L20.1033 67.6827H20.7778L22.0371 71.2355H21.4974L20.463 68.1774H20.3281L19.2488 71.2355Z" fill="#0560AB"/>
<path d="M25.0495 69.7064H23.9252L23.1607 71.2355H22.666L23.4755 69.6165C23.2057 69.5265 23.0258 69.4366 22.9358 69.2567C22.8009 69.0768 22.756 68.8969 22.756 68.717C22.756 68.4472 22.8459 68.2223 23.0708 67.9975C23.2956 67.7726 23.6104 67.7277 23.9702 67.7277H25.4992V71.2804H25.0495V69.7064ZM25.0495 68.0874H23.9702C23.7453 68.0874 23.5655 68.1324 23.4305 68.2673C23.2956 68.3573 23.2507 68.5372 23.2507 68.717C23.2507 68.8969 23.2956 69.0318 23.4305 69.1668C23.5655 69.3017 23.7453 69.3466 24.0152 69.3466H25.0495V68.0874Z" fill="#0560AB"/>
<path d="M28.1528 69.5715H27.3882V71.2354H26.8936V67.6827H27.3882V69.1667H28.1528C28.1977 68.717 28.3776 68.3572 28.6475 68.0424C28.9173 67.7726 29.2771 67.6377 29.7268 67.6377C30.1765 67.6377 30.5813 67.8176 30.8961 68.1324C31.2109 68.4472 31.3458 68.8969 31.3458 69.4366C31.3458 69.9313 31.2109 70.381 30.8961 70.7408C30.6262 71.1005 30.2215 71.2804 29.7268 71.2804C29.2321 71.2804 28.8273 71.1005 28.5575 70.7857C28.3327 70.4709 28.1977 70.0662 28.1528 69.5715ZM29.7718 67.9975C29.457 67.9975 29.1871 68.1324 28.9623 68.4022C28.7374 68.672 28.6475 69.0318 28.6475 69.4815C28.6475 69.8863 28.7374 70.2461 28.9623 70.5159C29.1421 70.7857 29.412 70.9206 29.7718 70.9206C30.1315 70.9206 30.3564 70.7857 30.5813 70.5159C30.7611 70.2461 30.8511 69.8863 30.8511 69.4366C30.8511 68.9419 30.7611 68.5821 30.5363 68.3572C30.3114 68.1324 30.0866 67.9975 29.7718 67.9975Z" fill="#0560AB"/>
<path d="M36.7872 70.8757H37.3268V72H36.9221L36.8771 71.2355H32.5598V67.6827H33.0545V70.8308H34.4486V67.6827H34.9433V70.8308H36.3375V67.6827H36.8321V70.8757H36.7872Z" fill="#0560AB"/>
<path d="M40.9246 71.2355H40.4299L40.0252 70.2012H38.5861L38.2263 71.2355H37.8215L39.0807 67.6827H39.6204L40.9246 71.2355ZM39.9352 69.8864L39.3506 68.1774L38.7659 69.8864H39.9352Z" fill="#0560AB"/>
<path d="M43.9375 69.7064H42.8132L42.0486 71.2355H41.554L42.3635 69.6165C42.0936 69.5265 41.9137 69.4366 41.8238 69.2567C41.6889 69.0768 41.6439 68.8969 41.6439 68.717C41.6439 68.4472 41.7338 68.2223 41.9587 67.9975C42.1836 67.7726 42.4984 67.7277 42.8581 67.7277H44.3872V71.2804H43.9375V69.7064ZM43.9375 68.0874H42.8581C42.6333 68.0874 42.4534 68.1324 42.3185 68.2673C42.1836 68.3573 42.1386 68.5372 42.1386 68.717C42.1386 68.8969 42.1836 69.0318 42.3185 69.1668C42.4534 69.3017 42.6333 69.3466 42.9031 69.3466H43.9375V68.0874Z" fill="#0560AB"/>
<path d="M50.8191 71.2355H50.2795L49.1102 69.3017L48.2108 70.2911V71.2355H47.7161V67.6827H48.2108V69.7514L49.9647 67.6827H50.5043L49.47 68.942L50.8191 71.2355Z" fill="#0560AB"/>
<path d="M53.0215 71.3254C52.5268 71.3254 52.1221 71.1456 51.8523 70.7858C51.5824 70.426 51.4475 69.9763 51.4475 69.4816C51.4475 68.9419 51.5824 68.4922 51.8972 68.1324C52.212 67.7727 52.5718 67.5928 53.0665 67.5928C53.5612 67.5928 53.921 67.7727 54.2358 68.0875C54.5056 68.4472 54.6855 68.852 54.6855 69.3916C54.6855 69.8863 54.5506 70.3361 54.2807 70.6958C54.0109 71.0556 53.5162 71.3254 53.0215 71.3254ZM53.0215 70.9657C53.3813 70.9657 53.6062 70.8308 53.831 70.5609C54.0109 70.2911 54.1009 69.9313 54.1009 69.4816C54.1009 69.0319 54.0109 68.6721 53.786 68.4023C53.6062 68.1324 53.3363 68.0425 52.9766 68.0425C52.6618 68.0425 52.3919 68.1774 52.1671 68.4472C51.9422 68.7171 51.8523 69.0768 51.8523 69.5266C51.8523 69.9763 51.9422 70.3361 52.1671 70.6059C52.3919 70.8757 52.7067 70.9657 53.0215 70.9657Z" fill="#0560AB"/>
<path d="M59.5884 71.2355H59.0937V68.1325L57.8345 71.2355H57.5197L56.2605 68.1325V71.2355H55.8557V67.6827H56.5753L57.7445 70.516L58.9138 67.6827H59.6333V71.2355H59.5884Z" fill="#0560AB"/>
<path d="M60.9827 71.2355V67.6827H63.681V71.2355H63.1863V68.0875H61.4774V71.2355H60.9827Z" fill="#0560AB"/>
<path d="M67.7283 71.2355H67.2336L66.8289 70.2012H65.3898L65.03 71.2355H64.6252L65.8845 67.6827H66.4241L67.7283 71.2355ZM66.7389 69.8864L66.1543 68.1774L65.5697 69.8864H66.7389Z" fill="#0560AB"/>
<path d="M71.4614 71.2355H70.9667V69.5716H69.1678V71.2355H68.6731V67.6827H69.1678V69.1668H70.9667V67.6827H71.4614V71.2355Z" fill="#0560AB"/>
<path d="M73.3494 70.9656V71.2804H72.8547V67.7277H73.3494V70.0212C73.3494 70.1561 73.3494 70.336 73.3494 70.4709C73.4843 70.2461 73.6642 70.0212 73.8441 69.7964L75.2382 68.0874V67.7277H75.7329V71.2804H75.1933V69.2117C75.1933 69.0768 75.1933 68.852 75.1933 68.5821C75.1033 68.762 74.9234 68.9869 74.6986 69.2567L73.3494 70.9656Z" fill="#0560AB"/>
<path d="M79.1962 69.7064H78.072L77.3074 71.2355H76.8127L77.6222 69.6165C77.3524 69.5265 77.1725 69.4366 77.0826 69.2567C76.9477 69.0768 76.9027 68.8969 76.9027 68.717C76.9027 68.4472 76.9926 68.2223 77.2175 67.9975C77.4423 67.7726 77.7572 67.7277 78.1169 67.7277H79.646V71.2804H79.1962V69.7064ZM79.1962 68.0874H78.1169C77.8921 68.0874 77.7122 68.1324 77.5773 68.2673C77.4423 68.3573 77.3974 68.5372 77.3974 68.717C77.3974 68.8969 77.4423 69.0318 77.5773 69.1668C77.7122 69.3017 77.8921 69.3466 78.1619 69.3466H79.1962V68.0874Z" fill="#0560AB"/>
<path fill-rule="evenodd" clip-rule="evenodd" d="M7.15053 44.972C8.6346 44.6572 9.35415 43.8027 9.35415 42.4985C9.35415 41.1943 8.6346 40.3848 7.15053 40.0251V44.972ZM4.58713 40.07C3.14803 40.3848 2.38351 41.2393 2.38351 42.5435C2.38351 43.8477 3.10306 44.6572 4.58713 45.0169V40.07ZM4.58713 46.6809C3.05809 46.546 1.93379 46.1412 1.16927 45.3767C0.404747 44.6572 0 43.6678 0 42.4985C0 41.2843 0.404747 40.3399 1.16927 39.6203C1.93379 38.9008 3.10306 38.451 4.58713 38.3161V37.6865H7.15053V38.3611C8.67957 38.496 9.84884 38.9008 10.6134 39.6653C11.3779 40.3848 11.7826 41.3742 11.7826 42.5435C11.7826 43.7577 11.3779 44.7021 10.6134 45.4217C9.84884 46.1412 8.67957 46.591 7.15053 46.7259V47.9851H4.58713V46.6809Z" fill="#0560AB"/>
<path fill-rule="evenodd" clip-rule="evenodd" d="M35.3933 37.6865V47.9401H32.8299V43.7128H29.3671V47.9401H26.8486V37.6865H29.3671V41.689H32.8299V37.6865H35.3933Z" fill="#0560AB"/>
<path fill-rule="evenodd" clip-rule="evenodd" d="M45.1514 44.0725V44.1624C44.9265 45.3767 44.2969 45.9613 43.3075 45.9613C42.6779 45.9613 42.1832 45.7364 41.8684 45.3317C41.5086 44.882 41.3287 44.0725 41.3287 42.8133C41.3287 40.6996 41.9584 39.6652 43.2625 39.6652C44.3868 39.6652 44.9265 40.3398 44.9715 41.689V41.8239L47.9846 41.644V41.5091C47.6248 38.8557 46.0508 37.5066 43.3075 37.5066C41.7335 37.5066 40.4743 38.0013 39.5299 38.9907C38.6304 39.98 38.1357 41.2393 38.1357 42.8133C38.1357 44.4772 38.6304 45.7814 39.5748 46.6809C40.5193 47.6253 41.7785 48.075 43.2625 48.075C44.4768 48.075 45.5561 47.7602 46.4106 47.1306C47.265 46.501 47.8047 45.5566 47.9396 44.2973V44.1624L45.1514 44.0725Z" fill="#0560AB"/>
<path fill-rule="evenodd" clip-rule="evenodd" d="M57.8332 37.6865V39.7103H54.5953V47.9401H51.9869V39.7103H48.8389V37.6865H57.8332Z" fill="#0560AB"/>
<path fill-rule="evenodd" clip-rule="evenodd" d="M62.1512 43.9376H64.5347L63.3654 40.3399L62.1512 43.9376ZM65.1193 37.6865L68.6271 47.9401H65.8389L65.1643 45.8264H61.5665L60.847 47.9401H57.9238L61.4766 37.6865H65.1193Z" fill="#0560AB"/>
<path fill-rule="evenodd" clip-rule="evenodd" d="M73.5294 42.2737H75.2833C75.9578 42.2737 76.4525 42.1387 76.7224 41.8689C76.9922 41.5991 77.1271 41.2843 77.1271 40.9245C77.1271 40.5198 76.9922 40.16 76.6774 39.9351C76.3626 39.7103 75.9129 39.5753 75.2833 39.5753H73.5294V42.2737ZM73.6193 44.1175V47.9401H70.8311V37.6865H75.4182C76.4525 37.6865 77.2171 37.7765 77.7567 37.9564C78.2964 38.1362 78.7911 38.496 79.1958 38.9907C79.6006 39.4854 79.8254 40.115 79.8254 40.8346C79.8254 41.3292 79.7355 41.8239 79.4657 42.3186C79.2408 42.8133 78.926 43.1731 78.5212 43.4429C78.1165 43.7128 77.7118 43.8926 77.307 43.9826C76.9023 44.0725 76.3176 44.1175 75.4632 44.1175H73.6193Z" fill="#0560AB"/>
<path fill-rule="evenodd" clip-rule="evenodd" d="M20.2375 37.6865L16.7297 43.263V37.6865H14.1663V47.9401H16.9995L21.1819 41.4642V47.9401H23.7003V37.6865H20.2375Z" fill="#0560AB"/>
<path fill-rule="evenodd" clip-rule="evenodd" d="M6.5214 52.2573L3.01359 57.0693V52.2573H0.450195V62.5109H3.01359V60.1724L4.58761 58.0587L6.83621 62.5109H9.71441L6.34151 55.945L9.03983 52.2573H6.5214Z" fill="#0560AB"/>
<path fill-rule="evenodd" clip-rule="evenodd" d="M32.3356 52.2573V62.5559H29.8172V54.2811H26.3544V62.5559H23.8359V52.2573H26.3544H29.8172H32.3356Z" fill="#0560AB"/>
<path fill-rule="evenodd" clip-rule="evenodd" d="M15.5154 58.5084H17.899L16.7297 54.9107L15.5154 58.5084ZM18.4836 52.2573L21.9914 62.5109H19.2031L18.5286 60.3972H14.9308L14.2113 62.5109H11.2881L14.8409 52.2573H18.4836Z" fill="#0560AB"/>
<path fill-rule="evenodd" clip-rule="evenodd" d="M60.8026 58.5084H63.1861L62.0168 54.9107L60.8026 58.5084ZM63.7707 52.2573L67.2785 62.5109H64.4902L63.8157 60.3972H60.2179L59.4984 62.5109H56.5752L60.128 52.2573H63.7707Z" fill="#0560AB"/>
<path fill-rule="evenodd" clip-rule="evenodd" d="M56.1252 52.2573V54.2811H52.8873V62.5109H50.2789V54.2811H47.1309V52.2573H56.1252Z" fill="#0560AB"/>
<path fill-rule="evenodd" clip-rule="evenodd" d="M41.1044 52.2573L37.5516 57.8338V52.2573H35.0332V62.5109H37.8215L42.0038 56.035V62.5109H44.5672V52.2573H41.1044Z" fill="#0560AB"/>
<path fill-rule="evenodd" clip-rule="evenodd" d="M75.9133 52.2573H72.2706L68.7178 62.5559H71.6409L72.3155 60.4422L72.9451 58.5084L74.1594 54.9107L75.3286 58.5084L75.9133 60.4422L76.6328 62.5559H79.4211L75.9133 52.2573Z" fill="#0560AB"/>
</svg>
