<svg width="228" height="61" viewBox="0 0 228 61" fill="none" xmlns="http://www.w3.org/2000/svg">
<g clip-path="url(#clip0_317_485)">
<path fill-rule="evenodd" clip-rule="evenodd" d="M26.959 24.7353C26.959 24.7353 41.4761 5.67502 59.0481 30.5318C54.6486 33.6649 45.4318 39.9834 45.4318 39.9834C45.4318 39.9834 47.2856 21.5238 26.972 24.7353" fill="white"/>
<path fill-rule="evenodd" clip-rule="evenodd" d="M32.0891 34.2786C32.0891 34.2786 17.572 53.326 0 28.4823C4.39953 25.3492 13.6294 19.0302 13.6294 19.0302C13.6294 19.0302 11.7625 37.4901 32.0891 34.2917" fill="white"/>
<path fill-rule="evenodd" clip-rule="evenodd" d="M34.2952 26.9414C34.2952 26.9414 53.3555 41.4587 28.4857 59.0176C25.3525 54.6181 19.0339 45.4013 19.0339 45.4013C19.0339 45.4013 37.4937 47.268 34.2821 26.9414" fill="white"/>
<path fill-rule="evenodd" clip-rule="evenodd" d="M24.7652 32.0723C24.7652 32.0723 5.70486 17.555 30.5746 -0.00390625C33.6948 4.38256 40.0264 13.6123 40.0264 13.6123C40.0264 13.6123 21.5667 11.7587 24.7652 32.0723Z" fill="#00A874"/>
<path fill-rule="evenodd" clip-rule="evenodd" d="M86.0443 17.9859C88.8772 17.3462 90.3002 15.7534 90.3002 13.2077C90.3002 10.6619 88.8772 9.08237 86.0443 8.44268V17.9859ZM81.0704 8.44268C78.2374 9.08237 76.8275 10.6749 76.8275 13.2077C76.8275 15.7403 78.2374 17.3462 81.0704 17.9859V8.44268ZM81.0704 21.302C78.133 21.067 75.9136 20.2312 74.4123 18.8082C72.911 17.3983 72.1538 15.5314 72.1538 13.2077C72.1538 10.8838 72.8979 9.02998 74.3993 7.62005C75.9006 6.21011 78.1199 5.37471 81.0704 5.12666V3.82117H86.0312V5.12666C88.9947 5.37471 91.2271 6.21011 92.7154 7.62005C94.2037 9.02998 94.9478 10.8969 94.9478 13.2077C94.9478 15.5184 94.2037 17.3852 92.7023 18.8082C91.201 20.2182 88.9817 21.054 86.0312 21.302V23.743H81.0704V21.302Z" fill="white"/>
<path fill-rule="evenodd" clip-rule="evenodd" d="M140.759 3.82117V23.7562H135.824V15.5314H129.126V23.7562H124.192V3.82117H129.126V11.5888H135.824V3.82117H140.759Z" fill="white"/>
<path fill-rule="evenodd" clip-rule="evenodd" d="M159.649 16.1841L159.61 16.3801C159.166 18.743 157.978 19.8788 155.994 19.8788C154.767 19.8788 153.84 19.4741 153.161 18.6647C152.469 17.8292 152.13 16.1971 152.13 13.821C152.13 9.69573 153.357 7.68533 155.863 7.68533C158.044 7.68533 159.127 8.96471 159.205 11.6018V11.837L165.054 11.5107L165.028 11.2754C164.362 6.13178 161.307 3.53394 155.981 3.53394C152.913 3.53394 150.446 4.51302 148.67 6.4321C146.908 8.33813 146.007 10.8188 146.007 13.7953C146.007 16.9807 146.934 19.513 148.761 21.3277C150.602 23.1423 153.017 24.0693 155.942 24.0693C158.331 24.0693 160.38 23.4428 162.038 22.2026C163.696 20.9624 164.702 19.1218 165.028 16.7327L165.067 16.4974L159.662 16.1972L159.649 16.1841Z" fill="white"/>
<path fill-rule="evenodd" clip-rule="evenodd" d="M184.245 3.84741V7.79004H178.018V23.7563H172.94V7.79004H166.856V3.84741H184.245Z" fill="white"/>
<path fill-rule="evenodd" clip-rule="evenodd" d="M192.613 15.9886H197.195L194.923 9.00406L192.613 15.9886ZM198.396 3.84741L205.172 23.7563H199.728L198.396 19.6572H191.399L190.041 23.7563H184.401L191.333 3.84741H198.396Z" fill="white"/>
<path fill-rule="evenodd" clip-rule="evenodd" d="M214.715 12.7378H218.149C219.454 12.7378 220.381 12.4766 220.903 11.9283C221.426 11.393 221.7 10.7795 221.7 10.0876C221.7 9.27821 221.412 8.63854 220.812 8.15551C220.224 7.67248 219.324 7.43742 218.123 7.43742H214.702V12.7248L214.715 12.7378ZM214.898 16.354V23.7562H209.532V3.82117H218.41C220.394 3.82117 221.909 4.00385 222.953 4.38244C223.997 4.76103 224.937 5.42689 225.773 6.39296C226.595 7.35903 227.013 8.53393 227.013 9.94387C227.013 10.923 226.791 11.8893 226.36 12.8162C225.916 13.7562 225.29 14.4872 224.493 15.0224C223.684 15.5577 222.914 15.9099 222.157 16.0927C221.399 16.2754 220.225 16.354 218.619 16.354H214.911H214.898Z" fill="white"/>
<path fill-rule="evenodd" clip-rule="evenodd" d="M111.41 3.82117L104.583 14.6177V3.82117H99.6348V23.7562H105.118L113.186 11.2102V23.7562H118.147V3.82117H111.41Z" fill="white"/>
<path fill-rule="evenodd" clip-rule="evenodd" d="M84.8177 32.1112L78.0161 41.4456V32.1112H73.0291V51.9811H78.0161V47.4246L81.0579 43.3647L85.3921 51.9811H90.9927L84.4783 39.2132L89.6872 32.1112H84.8177Z" fill="white"/>
<path fill-rule="evenodd" clip-rule="evenodd" d="M134.884 32.098V52.0331H129.949V36.0408H123.252V52.0331H118.317V32.098H123.252H129.949H134.884Z" fill="white"/>
<path fill-rule="evenodd" clip-rule="evenodd" d="M102.22 44.2523H106.803L104.531 37.2681L102.22 44.2523ZM108.004 32.1112L114.779 52.02H109.335L108.004 47.9209H101.006L99.6485 52.02H94.0088L100.941 32.1112H108.004Z" fill="white"/>
<path fill-rule="evenodd" clip-rule="evenodd" d="M190.001 44.2523H194.583L192.312 37.2681L190.001 44.2523ZM195.784 32.1112L202.56 52.02H197.116L195.784 47.9209H188.787L187.429 52.02H181.789L188.722 32.1112H195.784Z" fill="white"/>
<path fill-rule="evenodd" clip-rule="evenodd" d="M180.942 32.085V36.0145H174.702V51.9938H169.624V36.0145H163.54V32.085H180.942Z" fill="white"/>
<path fill-rule="evenodd" clip-rule="evenodd" d="M151.803 32.0724L144.988 42.8685V32.0724H140.028V51.9939H145.524L153.592 39.4483V51.9939H158.54V32.0724H151.803Z" fill="white"/>
<path fill-rule="evenodd" clip-rule="evenodd" d="M219.362 32.1111H212.287L205.354 52.0199H210.994L212.352 47.9208L213.579 44.2522L215.89 37.2679L218.161 44.2522L219.349 47.9208L220.681 52.0199H226.125L219.362 32.1111Z" fill="white"/>
</g>
<defs>
<clipPath id="clip0_317_485">
<rect width="227.157" height="60.0529" fill="white" transform="translate(0 -0.00390625)"/>
</clipPath>
</defs>
</svg>
