<svg width="37" height="38" viewBox="0 0 37 38" fill="none" xmlns="http://www.w3.org/2000/svg">
<path fill-rule="evenodd" clip-rule="evenodd" d="M17 16.3978C17 16.3978 26.048 4.39493 37 20.048C34.2579 22.0211 28.5134 26 28.5134 26C28.5134 26 29.6688 14.3754 17.0081 16.3978" fill="#0560AB"/>
<path fill-rule="evenodd" clip-rule="evenodd" d="M20 22.6047C20 22.6047 10.952 34.6022 0 18.9537C2.74207 16.9802 8.49471 13 8.49471 13C8.49471 13 7.33116 24.6276 20 22.6129" fill="#0560AB"/>
<path fill-rule="evenodd" clip-rule="evenodd" d="M21.6061 18C21.6061 18 33.6034 27.0517 17.9493 38C15.9772 35.2568 12 29.51 12 29.51C12 29.51 23.6193 30.6739 21.5978 18" fill="#0560AB"/>
<path fill-rule="evenodd" clip-rule="evenodd" d="M15.394 21C15.394 21 3.39664 11.4957 19.0507 0C21.0146 2.87178 25 8.91441 25 8.91441C25 8.91441 13.3807 7.70088 15.394 21Z" fill="#00A874"/>
</svg>
