<svg width="37" height="30" viewBox="0 0 37 30" fill="none" xmlns="http://www.w3.org/2000/svg">
<path d="M18.4847 13.1548C15.3359 13.1548 12.7744 15.719 12.7744 18.8698C12.7744 22.0205 15.3359 24.5848 18.4847 24.5848C21.6334 24.5848 24.1949 22.0205 24.1949 18.8698C24.1949 15.719 21.6334 13.1548 18.4847 13.1548ZM18.4847 22.1181C16.6952 22.1181 15.239 20.6607 15.239 18.8698C15.239 17.0788 16.6952 15.6214 18.4847 15.6214C20.2742 15.6214 21.7303 17.0788 21.7303 18.8698C21.7303 20.6607 20.2742 22.1181 18.4847 22.1181Z" fill="#38A7BC"/>
<path d="M33.2723 7.8932H3.69692C1.65832 7.8932 0 9.5529 0 11.5932V26.1469C0 28.1872 1.65832 29.8469 3.69692 29.8469H33.2723C35.3109 29.8469 36.9692 28.1872 36.9692 26.1469V11.5932C36.9692 9.55291 35.3109 7.8932 33.2723 7.8932ZM2.46461 11.5932C2.46461 10.9133 3.01759 10.3599 3.69692 10.3599H5.53275C5.10915 11.8389 3.94242 13.0066 2.46461 13.4312V11.5932ZM3.69692 27.3802C3.01759 27.3802 2.46461 26.8274 2.46461 26.1469V24.309C3.94242 24.7341 5.10854 25.9012 5.53275 27.3802H3.69692ZM34.5046 26.1469C34.5046 26.8274 33.9516 27.3802 33.2723 27.3802H31.4365C31.8607 25.9012 33.0268 24.7341 34.5046 24.309V26.1469ZM34.5046 21.7862C31.6664 22.2984 29.427 24.5397 28.9152 27.3802H8.054C7.54224 24.5397 5.30282 22.2984 2.46461 21.7862V15.9544C5.30282 15.4423 7.54224 13.2005 8.054 10.3599H28.9152C29.427 13.2005 31.6664 15.4423 34.5046 15.9544L34.5046 21.7862ZM34.5046 13.4312C33.0268 13.0066 31.8601 11.8389 31.4365 10.3599H33.2723C33.9516 10.3599 34.5046 10.9133 34.5046 11.5932V13.4312Z" fill="#38A7BC"/>
<path d="M2.85254 5.18025C2.85254 5.86136 3.4043 6.41358 4.08485 6.41358H32.884C33.5646 6.41358 34.1163 5.86136 34.1163 5.18025C34.1163 4.49914 33.5646 3.94691 32.884 3.94691H4.08485C3.40432 3.94691 2.85254 4.49914 2.85254 5.18025Z" fill="#38A7BC"/>
<path d="M6.45288 1.23333C6.45288 1.91444 7.00465 2.46667 7.68519 2.46667H29.2843C29.9648 2.46667 30.5166 1.91444 30.5166 1.23333C30.5166 0.552225 29.9648 0 29.2843 0H7.68519C7.00465 0 6.45288 0.552225 6.45288 1.23333Z" fill="#38A7BC"/>
</svg>
