<svg width="39" height="33" viewBox="0 0 39 33" fill="none" xmlns="http://www.w3.org/2000/svg">
<path d="M34.4137 6.44457H28.8829V4.09259C28.8829 1.83608 27.0927 0 24.8911 0H13.5145C11.3129 0 9.52264 1.8361 9.52264 4.09259V6.44457H3.99182C1.79026 6.44457 0 8.28002 0 10.5365V28.3892C0 30.6457 1.79026 32.4818 3.99182 32.4818H34.4137C36.6153 32.4818 38.4055 30.6457 38.4055 28.3892V10.5365C38.4055 8.28002 36.6153 6.44457 34.4137 6.44457ZM12.083 4.09259C12.083 3.28317 12.7256 2.625 13.5144 2.625H24.8911C25.6799 2.625 26.3225 3.28317 26.3225 4.09259V6.44457H12.083V4.09259ZM34.4137 9.06957C34.6004 9.06957 34.7769 9.1118 34.9407 9.17884L27.0759 17.0415H22.6724C22.6013 15.133 21.0804 13.5992 19.209 13.5992C17.3303 13.5992 15.8045 15.133 15.7331 17.0415H11.3296L3.47043 9.17771C3.63279 9.11202 3.80704 9.06956 3.99183 9.06956L34.4137 9.06957ZM18.2801 17.1772C18.2801 16.6517 18.6964 16.2242 19.209 16.2242C19.7141 16.2242 20.1254 16.6517 20.1254 17.1772V19.526C20.1254 20.0509 19.7141 20.4783 19.209 20.4783C18.6964 20.4783 18.2801 20.0509 18.2801 19.526V17.1772ZM34.4137 29.8568H3.99182C3.20296 29.8568 2.56037 29.1986 2.56037 28.3892V11.9588L9.90861 19.299C10.1518 19.5353 10.4719 19.6665 10.8048 19.6665H15.7336C15.8074 21.5728 17.332 23.1033 19.209 23.1033C21.0788 23.1033 22.5984 21.5728 22.6719 19.6665H27.6008C27.9336 19.6665 28.2537 19.5353 28.4969 19.299L35.8452 11.9567V28.3892C35.8452 29.1986 35.2026 29.8568 34.4137 29.8568Z" fill="#38A7BC"/>
</svg>
