<svg width="41" height="41" viewBox="0 0 41 41" fill="none" xmlns="http://www.w3.org/2000/svg">
<path d="M38.7983 11.6212C36.944 9.76563 33.7499 9.61209 29.8077 11.183C26.5541 12.4794 23.0402 14.8468 19.7966 17.8958L15.8361 13.9353L16.1007 9.78138C16.1256 9.39557 15.9826 9.01896 15.7097 8.74601L7.35682 0.393162C6.98546 0.0191698 6.42643 -0.0989322 5.93294 0.0861021C5.43823 0.27244 5.09966 0.730417 5.06554 1.25795L4.83721 4.83663L1.25852 5.06496C0.731005 5.09908 0.273028 5.43764 0.0866766 5.93237C-0.0996612 6.42586 0.0197579 6.98356 0.39375 7.35625L8.74658 15.7091C8.99985 15.9623 9.34103 16.1028 9.69665 16.1028C9.72551 16.1028 9.75308 16.1014 9.78195 16.1001L13.9359 15.8355L17.8964 19.7959C14.8474 23.0396 12.48 26.5534 11.1835 29.8071C9.61136 33.7506 9.7662 36.9434 11.6218 38.7977C12.6296 39.8055 14.0325 40.3122 15.7359 40.3122C17.1676 40.3122 18.8119 39.9538 20.6124 39.236C24.1924 37.8095 28.0912 35.0957 31.5938 31.5932C35.0963 28.0906 37.8102 24.1918 39.2366 20.6118C40.8088 16.6683 40.6539 13.4755 38.7983 11.6212ZM13.1901 13.1895L10.2176 13.3797L4.39498 7.55702L6.18761 7.44285C6.86211 7.39954 7.40013 6.86152 7.44344 6.18694L7.5576 4.39441L13.3803 10.217L13.1901 13.1895ZM36.7406 19.6171C35.4454 22.8651 32.9428 26.4437 29.6936 29.693C26.4443 32.9422 22.8656 35.4448 19.6177 36.74C16.8198 37.8568 14.5391 37.9158 13.5221 36.8975C12.505 35.8805 12.5627 33.601 13.6795 30.8018C14.8474 27.8734 17.0029 24.6782 19.7962 21.6957L23.3098 25.2095L21.7292 26.7902C21.2042 27.3151 21.2042 28.1654 21.7292 28.6903C21.9917 28.9528 22.3355 29.0841 22.6793 29.0841C23.0231 29.0841 23.3669 28.9528 23.6294 28.6903L28.691 23.6288C29.2159 23.1039 29.2159 22.2535 28.691 21.7286C28.166 21.2037 27.3157 21.2037 26.7908 21.7286L25.2101 23.3093L21.6963 19.7955C24.6788 17.0023 27.8739 14.8468 30.8024 13.6789C32.2735 13.0924 33.6003 12.7983 34.6763 12.7983C35.6475 12.7983 36.4152 13.0385 36.8981 13.5215C37.9152 14.5385 37.8574 16.8179 36.7406 19.6171Z" fill="#38A7BC"/>
</svg>
